<?xml version="1.0" encoding="UTF-8"?>
<svg width="32px" height="28px" viewBox="0 0 32 28" version="1.1" xmlns="http://www.w3.org/2000/svg" xmlns:xlink="http://www.w3.org/1999/xlink">
    <title>3C7CB9B1-5D83-4969-A84F-9CAFC16ED7DB@3x</title>
    <g id="AJU-Batch-1---Mobile" stroke="none" stroke-width="1" fill="none" fill-rule="evenodd">
        <g id="📱/-1.0_Homepage_Option_2-/-Mobile-B1" transform="translate(-90.000000, -1560.000000)">
            <g id="Atoms-/-Button-/-Main-/-Large" transform="translate(43.000000, 1548.000000)">
                <g id="Atoms-/-Icons-/-Global-/-Arrow-Copy" transform="translate(47.000000, 12.133333)">
                    <rect id="Rectangle" x="0" y="0" width="32" height="27.7333333"></rect>
                    <g id="Group" transform="translate(4.800000, 4.160000)" fill="#FFFFFF" fill-rule="nonzero">
                        <path d="M22.4,2.00221554 L0,2.00221554 C-0.4418278,2.00221554 -0.8,2.31263145 -0.8,2.69554888 L-0.8,19.3355489 C-0.8,19.7184663 -0.4418278,20.0288822 0,20.0288822 L22.4,20.0288822 C22.8418278,20.0288822 23.2,19.7184663 23.2,19.3355489 L23.2,2.69554888 C23.2,2.31263145 22.8418278,2.00221554 22.4,2.00221554 Z M21.6,3.38832 L21.6,18.6416533 L0.8,18.6416533 L0.8,3.38832 L21.6,3.38832 Z" id="Rectangle"></path>
                        <path d="M22.4,6.98488295 C22.8418278,6.98488295 23.2,7.29529886 23.2,7.67821629 C23.2,8.03378247 22.8911678,8.32683459 22.4932969,8.36688506 L22.4,8.37154962 L0,8.37154962 C-0.4418278,8.37154962 -0.8,8.06113371 -0.8,7.67821629 C-0.8,7.32265011 -0.491167848,7.02959799 -0.0932969003,6.98954751 L0,6.98488295 L22.4,6.98488295 Z" id="Path-2"></path>
                        <path d="M5.35827682,-0.693333333 C5.76854549,-0.693333333 6.10668254,-0.425678801 6.15289463,-0.0808573136 L6.15827682,0 L6.15827682,4.16 C6.15827682,4.54291743 5.80010462,4.85333333 5.35827682,4.85333333 C4.94800814,4.85333333 4.60987109,4.5856788 4.563659,4.24085731 L4.55827682,4.16 L4.55827682,0 C4.55827682,-0.382917427 4.91644902,-0.693333333 5.35827682,-0.693333333 Z" id="Path-3"></path>
                        <path d="M17.3582768,-0.693333333 C17.7685455,-0.693333333 18.1066825,-0.425678801 18.1528946,-0.0808573136 L18.1582768,0 L18.1582768,4.16 C18.1582768,4.54291743 17.8001046,4.85333333 17.3582768,4.85333333 C16.9480081,4.85333333 16.6098711,4.5856788 16.563659,4.24085731 L16.5582768,4.16 L16.5582768,0 C16.5582768,-0.382917427 16.916449,-0.693333333 17.3582768,-0.693333333 Z" id="Path-3-Copy"></path>
                    </g>
                </g>
            </g>
        </g>
    </g>
</svg>