<?xml version="1.0" encoding="UTF-8"?>
<svg width="32px" height="32px" viewBox="0 0 32 32" version="1.1" xmlns="http://www.w3.org/2000/svg" xmlns:xlink="http://www.w3.org/1999/xlink">
    <title>46310D0F-908E-4504-A838-A1CBAFB7BC7C@3x</title>
    <defs>
        <filter color-interpolation-filters="auto" id="filter-1">
            <feColorMatrix in="SourceGraphic" type="matrix" values="0 0 0 0 1.000000 0 0 0 0 1.000000 0 0 0 0 1.000000 0 0 0 1.000000 0"></feColorMatrix>
        </filter>
    </defs>
    <g id="AJU-Batch-1---Desktop-1920" stroke="none" stroke-width="1" fill="none" fill-rule="evenodd">
        <g id="🖥-/-4.1_How_Can_We_Help_Open" transform="translate(-828.000000, -2618.000000)">
            <g id="Atoms-/-Button-/-Main-/-Large" transform="translate(781.000000, 2604.000000)">
                <g id="Atoms-/-Icons-/-Global-/-Arrow-Copy" transform="translate(47.000000, 14.000000)">
                    <rect id="Rectangle" x="0" y="0" width="32" height="32"></rect>
                    <g filter="url(#filter-1)" id="Group">
                        <g transform="translate(2.400000, 5.600000)">
                            <path d="M24.8,0 L2.4,0 C1.0745166,0 0,1.0745166 0,2.4 L0,19.2 C0,20.5254834 1.0745166,21.6 2.4,21.6 L24.8,21.6 C26.1254834,21.6 27.2,20.5254834 27.2,19.2 L27.2,2.4 C27.2,1.0745166 26.1254834,0 24.8,0 Z M2.4,1.6 L24.8,1.6 C25.2418278,1.6 25.6,1.9581722 25.6,2.4 L25.6,19.2 C25.6,19.6418278 25.2418278,20 24.8,20 L2.4,20 C1.9581722,20 1.6,19.6418278 1.6,19.2 L1.6,2.4 C1.6,1.9581722 1.9581722,1.6 2.4,1.6 Z" id="Rectangle" fill="#FFFFFF" fill-rule="nonzero"></path>
                            <path d="M25.92,0.96 L26.88,2.24 L14.08,11.84 C13.824,12.032 13.4816,12.0512 13.20832,11.8976 L13.12,11.84 L0.32,2.24 L1.28,0.96 L13.6,10.2 L25.92,0.96 Z" id="Path-2" fill="#FFFFFF" fill-rule="nonzero"></path>
                        </g>
                    </g>
                </g>
            </g>
        </g>
    </g>
</svg>