<?xml version="1.0" encoding="UTF-8"?>
<svg width="40px" height="40px" viewBox="0 0 40 40" version="1.1" xmlns="http://www.w3.org/2000/svg" xmlns:xlink="http://www.w3.org/1999/xlink">
    <title>99EAAA81-5C28-4D84-A5FB-5E2A55A06FDA@3x</title>
    <g id="AJU-Batch-1---Mobile" stroke="none" stroke-width="1" fill="none" fill-rule="evenodd">
        <g id="📱/-1.0_AJU_Landing_Page_Menu_Option_1" transform="translate(-236.000000, -84.000000)">
            <g id="Molecules-/-Components-/-Search" transform="translate(22.000000, 84.000000)">
                <g id="Atoms-/-Buttons-/-Search" transform="translate(214.000000, 0.000000)">
                    <rect id="Rectangle" fill="#084E85" x="0" y="0" width="40" height="40" rx="2"></rect>
                    <g id="Atoms-/-Icons-/-Global-/-Search" transform="translate(8.000000, 8.000000)">
                        <rect id="Rectangle" x="0" y="0" width="24" height="24"></rect>
                        <path d="M10.5,4.2 C13.974,4.2 16.8,7.0266 16.8,10.5 C16.8,11.9394 16.3146,13.2672 15.4998,14.3292 L15.4998,14.3292 L19.719,18.5484 C19.953,18.783 19.953,19.1622 19.719,19.3968 C19.6014,19.5138 19.4484,19.5726 19.2948,19.5726 C19.1412,19.5726 18.9876,19.5138 18.8706,19.3968 L18.8706,19.3968 L14.6814,15.2082 C13.5684,16.1982 12.1032,16.8 10.5,16.8 C7.026,16.8 4.2,13.974 4.2,10.5 C4.2,7.0266 7.026,4.2 10.5,4.2 Z M10.5,5.4 C7.6878,5.4 5.4,7.6878 5.4,10.5 C5.4,13.3122 7.6878,15.6 10.5,15.6 C13.3122,15.6 15.6,13.3122 15.6,10.5 C15.6,7.6878 13.3122,5.4 10.5,5.4 Z" id="Combined-Shape" fill="#FFFFFF"></path>
                    </g>
                </g>
            </g>
        </g>
    </g>
</svg>