<?xml version="1.0" encoding="UTF-8"?>
<svg width="50px" height="50px" viewBox="0 0 50 50" version="1.1" xmlns="http://www.w3.org/2000/svg" xmlns:xlink="http://www.w3.org/1999/xlink">
    <title>A5BC9731-857B-4F1B-BD7C-76872B8EFFC4@3x</title>
    <defs>
        <filter color-interpolation-filters="auto" id="filter-1">
            <feColorMatrix in="SourceGraphic" type="matrix" values="0 0 0 0 1.000000 0 0 0 0 1.000000 0 0 0 0 1.000000 0 0 0 1.000000 0"></feColorMatrix>
        </filter>
        <polygon id="path-2" points="-2.84217094e-15 0 11.6568 0 11.6568 11.65632 -2.84217094e-15 11.65632"></polygon>
    </defs>
    <g id="AJU-Batch-1---Desktop-1920" stroke="none" stroke-width="1" fill="none" fill-rule="evenodd">
        <g id="🖥-/-1.1_Homepage_Searchbar_Open" transform="translate(-1731.000000, -15.000000)">
            <g id="Group-3" transform="translate(1731.000000, 15.000000)">
                <g id="Atoms-/-Buttons-/-Search" fill="#6098B7">
                    <rect id="Rectangle" x="0" y="0" width="50" height="50" rx="2"></rect>
                </g>
                <g id="Atoms-/-Icons-/-Global-/-Cart" transform="translate(9.000000, 9.000000)">
                    <rect id="Rectangle" x="0" y="0" width="32" height="32"></rect>
                    <g filter="url(#filter-1)" id="Group-10">
                        <g transform="translate(3.200000, 2.400000)">
                            <path d="M24.5592,19.66 L5.6664,19.66 C5.9088,19.1992 6.6352,18.1776 8.724,16.1104 L21.3592,16.1104 C21.704,16.1104 22.0096,15.8904 22.1184,15.5632 L25.3184,5.9288 C25.4576,5.5096 25.2304,5.0568 24.8112,4.9176 C24.3928,4.7792 23.94,5.0056 23.8,5.4248 L20.7816,14.5104 L8.9592,14.5104 L4.9048,3.044 C4.792,2.7248 4.4896,2.5104 4.1504,2.5104 L0.8,2.5104 C0.3584,2.5104 0,2.8688 0,3.3104 C0,3.7528 0.3584,4.1104 0.8,4.1104 L3.5848,4.1104 L7.4704,15.1 C4.1584,18.3952 3.6872,19.6112 4.0368,20.4672 C4.1576,20.7632 4.5024,21.26 5.4536,21.26 L24.5592,21.26 C25.0016,21.26 25.3593475,20.9024 25.3593475,20.46 C25.3593475,20.0176 25.0016,19.66 24.5592,19.66" id="Fill-1" fill="#FFFFFF"></path>
                            <path d="M7.75024,25.8928 C7.08864,25.8928 6.55024,25.3544 6.55024,24.6928 C6.55024,24.0312 7.08864,23.4928 7.75024,23.4928 C8.41184,23.4928 8.95024,24.0312 8.95024,24.6928 C8.95024,25.3544 8.41184,25.8928 7.75024,25.8928 M7.75024,21.8928 C6.20624,21.8928 4.95024,23.1488 4.95024,24.6928 C4.95024,26.2368 6.20624,27.4928 7.75024,27.4928 C9.29424,27.4928 10.55024,26.2368 10.55024,24.6928 C10.55024,23.1488 9.29424,21.8928 7.75024,21.8928" id="Fill-3" fill="#FFFFFF"></path>
                            <path d="M22.15064,25.8928 C21.48904,25.8928 20.95064,25.3544 20.95064,24.6928 C20.95064,24.0312 21.48904,23.4928 22.15064,23.4928 C22.81224,23.4928 23.35064,24.0312 23.35064,24.6928 C23.35064,25.3544 22.81224,25.8928 22.15064,25.8928 M22.15064,21.8928 C20.60664,21.8928 19.35064,23.1488 19.35064,24.6928 C19.35064,26.2368 20.60664,27.4928 22.15064,27.4928 C23.69464,27.4928 24.95064,26.2368 24.95064,24.6928 C24.95064,23.1488 23.69464,21.8928 22.15064,21.8928" id="Fill-5" fill="#FFFFFF"></path>
                            <g id="Group-9" transform="translate(8.822880, 0.000000)">
                                <mask id="mask-3" fill="white">
                                    <use xlink:href="#path-2"></use>
                                </mask>
                                <g id="Clip-8"></g>
                                <path d="M0.8,6.62832 L5.0288,6.62832 L5.0288,10.85632 C5.0288,11.29792 5.3864,11.65632 5.8288,11.65632 C6.2704,11.65632 6.6288,11.29792 6.6288,10.85632 L6.6288,6.62832 L10.8568,6.62832 C11.2992,6.62832 11.6568,6.26992 11.6568,5.82832 C11.6568,5.38672 11.2992,5.02832 10.8568,5.02832 L6.6288,5.02832 L6.6288,0.79952 C6.6288,0.35792 6.2704,-0.00048 5.8288,-0.00048 C5.3864,-0.00048 5.0288,0.35792 5.0288,0.79952 L5.0288,5.02832 L0.8,5.02832 C0.3584,5.02832 -2.84217094e-15,5.38672 -2.84217094e-15,5.82832 C-2.84217094e-15,6.26992 0.3584,6.62832 0.8,6.62832" id="Fill-7" fill="#FFFFFF" mask="url(#mask-3)"></path>
                            </g>
                        </g>
                    </g>
                </g>
            </g>
        </g>
    </g>
</svg>